<svg width="20" height="20" viewBox="0 0 20 20" fill="none" xmlns="http://www.w3.org/2000/svg">
<path fill-rule="evenodd" clip-rule="evenodd" d="M17.801 8.222C17.931 8.794 18 9.389 18 10C18 14.415 14.415 18 10 18C5.585 18 2 14.415 2 10C2 5.585 5.585 2 10 2C10.923 2 11.809 2.156 12.634 2.444C13.155 2.626 13.725 2.351 13.907 1.83C14.089 1.308 13.814 0.738 13.293 0.556C12.261 0.196 11.153 0 10 0C4.481 0 0 4.481 0 10C0 15.519 4.481 20 10 20C15.519 20 20 15.519 20 10C20 9.237 19.914 8.493 19.752 7.778C19.629 7.24 19.093 6.903 18.555 7.025C18.017 7.147 17.679 7.683 17.801 8.222ZM9 10.586L17.293 2.293C17.683 1.903 18.317 1.903 18.707 2.293C19.097 2.683 19.097 3.317 18.707 3.707L9.707 12.707C9.317 13.098 8.683 13.098 8.293 12.707L5.293 9.707C4.903 9.317 4.903 8.683 5.293 8.293C5.683 7.903 6.317 7.903 6.707 8.293L9 10.586Z" fill="white"/>
</svg>
